<svg t="1750988700833" class="icon" viewBox="0 0 1024 1024" version="1.1" xmlns="http://www.w3.org/2000/svg" p-id="7380"
    width="200" height="200">
    <path
        d="M972.066152 888.896729H94.083058V406.438809h877.983094v482.45792z m-862.929805-15.053289h847.876516V421.492098H109.136347v452.351342z"
        fill="#666666" p-id="7381"></path>
    <path
        d="M239.347299 817.393605c-62.847483 0-114.028666-51.181183-114.028666-114.028666 0-62.847483 51.181183-114.028666 114.028666-114.028666s114.028666 51.181183 114.028666 114.028666c0 62.847483-51.181183 114.028666-114.028666 114.028666z m0-213.004042c-54.568173 0-98.975377 44.407203-98.975377 98.975376s44.407203 98.975377 98.975377 98.975377 98.975377-44.407203 98.975376-98.975377-44.407203-98.975377-98.975376-98.975376zM826.425579 817.393605c-62.847483 0-114.028666-51.181183-114.028666-114.028666 0-62.847483 51.181183-114.028666 114.028666-114.028666 62.847483 0 114.028666 51.181183 114.028666 114.028666 0 62.847483-51.181183 114.028666-114.028666 114.028666z m0-213.004042c-54.568173 0-98.975377 44.407203-98.975377 98.975376s44.407203 98.975377 98.975377 98.975377 98.975377-44.407203 98.975377-98.975377-44.407203-98.975377-98.975377-98.975376zM674.011025 796.319h-272.464535c-6.397648 0-11.289967-4.892319-11.289967-11.289967v-133.597941c0-6.397648 4.892319-11.289967 11.289967-11.289967h272.464535c6.397648 0 11.289967 4.892319 11.289967 11.289967v133.597941c0 6.021316-5.268651 11.289967-11.289967 11.289967z m-268.701212-15.053289h264.93789v-126.071297h-264.93789v126.071297z"
        fill="#666666" p-id="7382"></path>
    <path
        d="M431.276736 683.795663h213.380375v15.05329h-213.380375zM423.750092 736.482176h15.053289v30.859243h-15.053289zM455.738331 736.482176h15.05329v30.859243h-15.05329zM487.350239 736.482176h15.053289v30.859243h-15.053289zM519.338479 736.482176h15.053289v30.859243h-15.053289zM550.950386 736.482176h15.053289v30.859243h-15.053289zM582.938626 736.482176h15.053289v30.859243h-15.053289zM614.926865 736.482176h15.053289v30.859243h-15.053289zM646.538773 736.482176h15.053289v30.859243h-15.053289zM896.799706 540.413083H167.844175c-6.021316 0-11.289967-5.268651-11.289967-11.289966v-56.449835c0-6.021316 5.268651-11.289967 11.289967-11.289967h729.331863c6.397648 0 11.289967 4.892319 11.289967 11.289967V530.628445c-1.128997 6.021316-6.021316 9.784638-11.666299 9.784638z m-725.192209-15.053289h721.805219v-48.92319H171.607497v48.92319zM854.274164 421.492098H221.659684c-6.021316 0-11.289967-5.268651-11.289967-11.289966V252.895259c0-6.397648 4.892319-11.289967 11.289967-11.289967H854.274164c6.397648 0 11.289967 4.892319 11.289967 11.289967V410.202132c0 6.397648-4.892319 11.289967-11.289967 11.289966z m-628.851158-15.053289H850.510842V256.658581H225.423006V406.438809zM939.70158 421.492098h-34.998897c-6.397648 0-11.289967-4.892319-11.289967-11.289966v-29.353914c0-6.397648 4.892319-11.289967 11.289967-11.289967h34.998897c6.397648 0 11.289967 4.892319 11.289967 11.289967v29.353914c0 6.397648-4.892319 11.289967-11.289967 11.289966z m-31.235575-15.053289h27.472253v-21.827269h-27.472253v21.827269z"
        fill="#666666" p-id="7383"></path>
    <path
        d="M922.013965 377.084895c-4.139655 0-7.526645-3.38699-7.526644-7.526644v-274.722529c0-4.139655 3.38699-7.526645 7.526644-7.526644s7.526645 3.38699 7.526645 7.526644v274.722529c0 4.139655-3.38699 7.526645-7.526645 7.526644z"
        fill="#666666" p-id="7384"></path>
</svg>